<svg width="8" height="36" viewBox="0 0 8 36" fill="none" xmlns="http://www.w3.org/2000/svg">
<path d="M4.0752 7.63126C3.11934 7.63126 2.29382 7.28368 1.59865 6.5885C0.946923 5.89333 0.621061 5.04609 0.621061 4.04678C0.621061 3.04747 0.946923 2.22195 1.59865 1.57023C2.29382 0.875056 3.11934 0.527469 4.0752 0.527469C5.03106 0.527469 5.85658 0.875056 6.55175 1.57023C7.24692 2.22195 7.59451 3.04747 7.59451 4.04678C7.59451 5.04609 7.24692 5.89333 6.55175 6.5885C5.85658 7.28368 5.03106 7.63126 4.0752 7.63126ZM4.0752 35.3947C3.11934 35.3947 2.29382 35.0471 1.59865 34.352C0.946923 33.6568 0.621061 32.8095 0.621061 31.8102C0.621061 30.8109 0.946923 29.9854 1.59865 29.3337C2.29382 28.6385 3.11934 28.2909 4.0752 28.2909C5.03106 28.2909 5.85658 28.6385 6.55175 29.3337C7.24692 29.9854 7.59451 30.8109 7.59451 31.8102C7.59451 32.8095 7.24692 33.6568 6.55175 34.352C5.85658 35.0471 5.03106 35.3947 4.0752 35.3947Z" fill="black"/>
</svg>
